<svg xmlns="http://www.w3.org/2000/svg" width="512" height="1024" viewBox="0 0 512 1024">
<rect width="100%" height="100%" fill="white"/>
<g fill="none" stroke="#1f3b73" stroke-width="2" stroke-linejoin="round" stroke-linecap="round">
  <path id="back_head" d="M 245.00,383.50 L 223.50,366.00 L 224.50,362.00 L 214.50,339.00 L 188.50,302.00 L 178.50,276.00 L 175.00,252.50 L 196.00,267.50 L 213.00,272.50 L 233.00,273.50 L 235.50,277.00 L 242.50,296.00 L 244.00,359.50 L 246.50,358.00 L 247.50,340.00 L 247.50,290.00 L 253.50,276.00 L 292.00,268.50 L 314.50,254.00 L 301.50,300.00 L 273.50,341.00 L 265.50,359.00 L 265.50,366.00 L 245.00,383.50 Z"/>
  <path id="back_left-ear" d="M 175.50,312.00 C 165.50,316.00 165.50,334.00 175.50,338.00" />
  <path id="back_neck" d="M 244.00,284.50 L 230.50,259.00 L 218.50,213.00 L 212.00,204.50 L 187.50,186.00 L 214.00,174.50 L 226.50,160.00 L 231.50,140.00 L 246.00,137.50 L 257.50,140.00 L 260.50,159.00 L 271.00,172.50 L 300.50,187.00 L 272.50,209.00 L 267.50,219.00 L 258.50,258.00 L 244.00,284.50 Z"/>
  <path id="back_left-shoulder" d="M 223.00,450.50 L 209.00,450.50 L 197.00,444.50 L 189.50,436.00 L 182.50,419.00 L 180.50,385.00 L 188.00,374.50 L 199.00,368.50 L 213.00,367.50 L 223.00,370.50 L 231.00,375.50 L 242.50,390.00 L 242.50,434.00 L 235.00,444.50 L 223.00,450.50 Z"/>
  <path id="back_right-shoulder" d="M 280.00,450.50 L 263.00,449.50 L 247.50,436.00 L 246.50,399.00 L 247.50,389.00 L 257.00,376.50 L 272.00,368.50 L 285.00,367.50 L 297.00,371.50 L 304.50,378.00 L 309.50,388.00 L 309.50,404.00 L 305.50,423.00 L 298.50,438.00 L 291.00,445.50 L 280.00,450.50 Z"/>
  <path id="back_left-trapezius" d="M 295.00,664.50 L 285.50,659.00 L 280.50,649.00 L 278.50,608.00 L 283.50,581.00 L 299.00,548.50 L 320.50,597.00 L 326.50,636.00 L 317.00,657.50 L 312.00,660.50 L 307.50,659.00 L 307.50,646.00 L 305.00,644.50 L 302.50,658.00 L 295.00,664.50 Z"/>
  <path id="back_right-trapezius" d="M 196.00,664.50 L 188.50,661.00 L 185.00,644.50 L 181.50,648.00 L 182.50,659.00 L 176.00,659.50 L 168.50,653.00 L 163.50,641.00 L 163.50,620.00 L 168.50,598.00 L 190.00,549.50 L 205.50,580.00 L 211.50,614.00 L 208.50,649.00 L 204.50,658.00 L 196.00,664.50 Z"/>
  <path id="back_left-triceps" d="M 264.00,136.50 L 252.00,133.50 L 224.00,136.50 L 221.50,132.00 L 213.50,91.00 L 218.50,75.00 L 230.00,65.50 L 252.00,63.50 L 264.00,69.50 L 271.50,79.00 L 274.50,91.00 L 271.50,110.00 L 274.00,112.50 L 277.00,110.50 L 277.50,114.00 L 274.50,125.00 L 269.50,124.00 L 264.00,136.50 Z"/>
  <path id="back_right-triceps" d="M 211.00,581.50 L 192.50,541.00 L 191.50,481.00 L 195.00,448.50 L 212.50,456.00 L 215.50,474.00 L 219.50,541.00 L 216.50,566.00 L 211.00,581.50 Z"/>
  <path id="back_left-forearm" d="M 279.00,581.50 L 270.50,552.00 L 273.50,476.00 L 276.50,456.00 L 294.00,448.50 L 297.50,472.00 L 297.50,538.00 L 279.00,581.50 Z"/>
  <path id="back_right-forearm" d="M 123.00,313.50 L 120.50,312.00 L 120.50,287.00 L 133.50,255.00 L 142.00,245.50 L 167.00,234.50 L 169.50,258.00 L 162.50,278.00 L 143.00,300.50 L 123.00,313.50 Z"/>
  <path id="back_left-hand" d="M 365.00,313.50 L 344.00,300.50 L 327.50,281.00 L 319.50,260.00 L 321.00,235.50 L 348.00,247.50 L 352.50,253.00 L 366.50,286.00 L 367.50,305.00 L 365.00,313.50 Z"/>
  <path id="back_right-hand" d="M 312.00,566.50 L 302.50,538.00 L 302.50,472.00 L 298.50,445.00 L 309.50,427.00 L 314.00,409.50 L 321.50,446.00 L 322.50,478.00 L 312.50,539.00 L 312.00,566.50 Z"/>
  <path id="back_left-latissimus" d="M 177.00,567.50 L 176.50,534.00 L 167.50,485.00 L 168.50,441.00 L 175.00,410.50 L 180.50,429.00 L 190.50,444.00 L 186.50,484.00 L 187.50,538.00 L 177.00,567.50 Z"/>
  <path id="back_right-latissimus" d="M 229.00,268.50 L 213.00,267.50 L 190.00,259.50 L 174.50,245.00 L 173.50,232.00 L 212.00,211.50 L 229.00,268.50 Z"/>
  <path id="back_upper-back" d="M 273.00,268.50 L 258.50,268.00 L 276.00,212.50 L 314.00,231.50 L 315.50,242.00 L 302.00,258.50 L 273.00,268.50 Z"/>
  <path id="back_lower-back" d="M 348.00,242.50 L 279.50,208.00 L 306.00,187.50 L 328.00,195.50 L 335.50,201.00 L 342.50,212.00 L 348.00,242.50 Z"/>
  <path id="back_left-glute" d="M 139.00,242.50 L 144.50,212.00 L 150.50,202.00 L 160.00,194.50 L 181.00,187.50 L 208.50,208.00 L 139.00,242.50 Z"/>
  <path id="back_right-glute" d="M 86.00,385.50 L 74.50,381.00 L 94.50,325.00 L 115.00,295.50 L 116.50,319.00 L 84.50,379.00 L 87.50,383.00 L 86.00,385.50 Z"/>
  <path id="back_left-hamstring" d="M 317.00,769.50 L 304.00,769.50 L 297.50,764.00 L 299.50,720.00 L 286.00,665.50 L 292.00,668.50 L 303.50,666.00 L 307.50,735.00 L 313.50,748.00 L 322.00,753.50 L 326.00,740.50 L 347.50,755.00 L 345.00,760.50 L 330.00,762.50 L 317.00,769.50 Z"/>
  <path id="back_right-hamstring" d="M 186.00,769.50 L 173.00,769.50 L 160.00,762.50 L 148.00,761.50 L 142.50,755.00 L 155.00,748.50 L 164.00,739.50 L 169.00,753.50 L 176.50,749.00 L 182.50,736.00 L 186.50,666.00 L 195.00,669.50 L 203.00,666.50 L 190.50,720.00 L 192.50,763.00 L 186.00,769.50 Z"/>
  <path id="back_left-knee" d="M 406.00,384.50 L 399.50,383.00 L 402.50,378.00 L 370.50,318.00 L 373.00,296.50 L 388.50,316.00 L 395.50,332.00 L 413.50,381.00 L 406.00,384.50 Z"/>
  <path id="back_right-knee" d="M 185.00,371.50 L 192.00,315.50 L 211.50,343.00 L 220.50,364.00 L 199.00,363.50 L 185.00,371.50 Z"/>
  <path id="back_left-calf" d="M 304.00,371.50 L 290.00,363.50 L 269.50,364.00 L 275.50,347.00 L 297.00,314.50 L 297.50,338.00 L 304.00,371.50 Z"/>
  <path id="back_right-calf" d="M 171.00,748.50 L 168.50,733.00 L 171.50,721.00 L 165.00,655.50 L 173.00,663.50 L 182.50,665.00 L 177.50,736.00 L 171.00,748.50 Z"/>
  <path id="back_left-ankle" d="M 265.00,525.50 L 253.50,481.00 L 251.00,447.50 L 262.00,454.50 L 271.50,456.00 L 265.00,525.50 Z"/>
  <path id="back_right-ankle" d="M 224.00,526.50 L 217.50,456.00 L 227.00,454.50 L 238.00,447.50 L 235.50,482.00 L 224.00,526.50 Z"/>
  <path id="back_right-foot" d="M 320.00,747.50 L 312.50,735.00 L 307.50,665.00 L 317.00,663.50 L 324.00,655.50 L 318.50,719.00 L 321.50,733.00 L 320.00,747.50 Z"/>
  <path id="back_right-upper-arm" d="M 421.00,444.50 L 417.50,440.00 L 420.50,419.00 L 412.50,400.00 L 410.00,397.50 L 406.50,403.00 L 405.00,424.50 L 399.50,401.00 L 401.50,391.00 L 415.00,384.50 L 427.50,415.00 L 427.50,426.00 L 421.00,444.50 Z"/>
  <path id="back_left-upper-arm" d="M 68.00,444.50 L 60.50,427.00 L 60.50,413.00 L 74.00,385.50 L 85.50,389.00 L 87.50,404.00 L 83.00,425.50 L 80.50,401.00 L 75.50,400.00 L 67.50,419.00 L 68.00,444.50 Z"/>
  <path id="back_right-scapula" d="M 395.00,376.50 L 365.50,344.00 L 351.00,310.50 L 366.50,320.00 L 395.00,376.50 Z"/>
</g></svg>